<?xml version="1.0" encoding="UTF-8" ?>
<svg version="1.1" width="96" height="96" xmlns="http://www.w3.org/2000/svg" shape-rendering="crispEdges">
<rect x="15" y="12" width="12" height="3" fill="#000000" />
<rect x="57" y="12" width="12" height="3" fill="#000000" />
<rect x="15" y="15" width="3" height="9" fill="#000000" />
<rect x="18" y="15" width="6" height="6" fill="#256B4F" />
<rect x="24" y="15" width="6" height="3" fill="#000000" />
<rect x="54" y="15" width="6" height="3" fill="#000000" />
<rect x="60" y="15" width="6" height="6" fill="#256B4F" />
<rect x="66" y="15" width="3" height="9" fill="#000000" />
<rect x="24" y="18" width="3" height="3" fill="#256B4F" />
<rect x="27" y="18" width="30" height="3" fill="#000000" />
<rect x="57" y="18" width="3" height="3" fill="#256B4F" />
<rect x="18" y="21" width="3" height="6" fill="#000000" />
<rect x="21" y="21" width="3" height="3" fill="#256B4F" />
<rect x="24" y="21" width="3" height="3" fill="#000000" />
<rect x="27" y="21" width="12" height="3" fill="#256B4F" />
<rect x="39" y="21" width="3" height="3" fill="#37946E" />
<rect x="42" y="21" width="15" height="6" fill="#256B4F" />
<rect x="57" y="21" width="3" height="3" fill="#000000" />
<rect x="60" y="21" width="3" height="3" fill="#256B4F" />
<rect x="63" y="21" width="3" height="12" fill="#000000" />
<rect x="21" y="24" width="3" height="9" fill="#000000" />
<rect x="24" y="24" width="6" height="9" fill="#256B4F" />
<rect x="30" y="24" width="3" height="3" fill="#37946E" />
<rect x="33" y="24" width="9" height="3" fill="#256B4F" />
<rect x="57" y="24" width="3" height="3" fill="#37946E" />
<rect x="60" y="24" width="3" height="3" fill="#000000" />
<rect x="30" y="27" width="3" height="3" fill="#256B4F" />
<rect x="33" y="27" width="18" height="3" fill="#000000" />
<rect x="51" y="27" width="3" height="3" fill="#37946E" />
<rect x="54" y="27" width="9" height="3" fill="#256B4F" />
<rect x="30" y="30" width="3" height="6" fill="#000000" />
<rect x="33" y="30" width="18" height="6" fill="#FFE9B7" />
<rect x="51" y="30" width="3" height="3" fill="#000000" />
<rect x="54" y="30" width="6" height="3" fill="#256B4F" />
<rect x="60" y="30" width="3" height="3" fill="#37946E" />
<rect x="18" y="33" width="3" height="6" fill="#000000" />
<rect x="21" y="33" width="3" height="6" fill="#256B4F" />
<rect x="24" y="33" width="3" height="3" fill="#37946E" />
<rect x="27" y="33" width="3" height="3" fill="#256B4F" />
<rect x="51" y="33" width="3" height="3" fill="#FFE9B7" />
<rect x="54" y="33" width="3" height="3" fill="#000000" />
<rect x="57" y="33" width="9" height="3" fill="#256B4F" />
<rect x="66" y="33" width="3" height="6" fill="#000000" />
<rect x="24" y="36" width="3" height="6" fill="#256B4F" />
<rect x="27" y="36" width="3" height="6" fill="#000000" />
<rect x="30" y="36" width="3" height="6" fill="#FFE9B7" />
<rect x="33" y="36" width="6" height="3" fill="#000000" />
<rect x="39" y="36" width="9" height="3" fill="#FFE9B7" />
<rect x="48" y="36" width="6" height="3" fill="#000000" />
<rect x="54" y="36" width="3" height="6" fill="#FFE9B7" />
<rect x="57" y="36" width="3" height="6" fill="#000000" />
<rect x="60" y="36" width="6" height="3" fill="#256B4F" />
<rect x="21" y="39" width="3" height="3" fill="#000000" />
<rect x="33" y="39" width="6" height="6" fill="#FFE9B7" />
<rect x="39" y="39" width="9" height="3" fill="#000000" />
<rect x="48" y="39" width="6" height="6" fill="#FFE9B7" />
<rect x="60" y="39" width="3" height="3" fill="#37946E" />
<rect x="63" y="39" width="3" height="6" fill="#000000" />
<rect x="24" y="42" width="3" height="3" fill="#000000" />
<rect x="27" y="42" width="3" height="3" fill="#256B4F" />
<rect x="30" y="42" width="3" height="6" fill="#000000" />
<rect x="39" y="42" width="3" height="3" fill="#639BFF" />
<rect x="42" y="42" width="6" height="3" fill="#FFE9B7" />
<rect x="54" y="42" width="3" height="6" fill="#000000" />
<rect x="57" y="42" width="3" height="3" fill="#256B4F" />
<rect x="60" y="42" width="3" height="6" fill="#000000" />
<rect x="18" y="45" width="6" height="3" fill="#000000" />
<rect x="24" y="45" width="3" height="3" fill="#256B4F" />
<rect x="27" y="45" width="3" height="3" fill="#000000" />
<rect x="33" y="45" width="21" height="3" fill="#000000" />
<rect x="57" y="45" width="3" height="3" fill="#000000" />
<rect x="63" y="45" width="3" height="3" fill="#37946E" />
<rect x="66" y="45" width="6" height="3" fill="#000000" />
<rect x="15" y="48" width="3" height="3" fill="#000000" />
<rect x="18" y="48" width="6" height="3" fill="#256B4F" />
<rect x="24" y="48" width="3" height="3" fill="#000000" />
<rect x="27" y="48" width="3" height="3" fill="#256B4F" />
<rect x="30" y="48" width="30" height="24" fill="#FFE9B7" />
<rect x="60" y="48" width="3" height="6" fill="#256B4F" />
<rect x="63" y="48" width="3" height="3" fill="#000000" />
<rect x="66" y="48" width="6" height="3" fill="#256B4F" />
<rect x="72" y="48" width="3" height="3" fill="#000000" />
<rect x="12" y="51" width="3" height="3" fill="#000000" />
<rect x="15" y="51" width="6" height="3" fill="#256B4F" />
<rect x="21" y="51" width="3" height="3" fill="#000000" />
<rect x="24" y="51" width="3" height="27" fill="#256B4F" />
<rect x="27" y="51" width="3" height="6" fill="#37946E" />
<rect x="63" y="51" width="3" height="3" fill="#37946E" />
<rect x="66" y="51" width="3" height="3" fill="#000000" />
<rect x="69" y="51" width="6" height="3" fill="#256B4F" />
<rect x="75" y="51" width="3" height="3" fill="#000000" />
<rect x="9" y="54" width="3" height="3" fill="#000000" />
<rect x="12" y="54" width="6" height="3" fill="#37946E" />
<rect x="18" y="54" width="3" height="9" fill="#000000" />
<rect x="21" y="54" width="3" height="3" fill="#37946E" />
<rect x="60" y="54" width="3" height="15" fill="#FFE9B7" />
<rect x="63" y="54" width="3" height="21" fill="#256B4F" />
<rect x="66" y="54" width="3" height="3" fill="#37946E" />
<rect x="69" y="54" width="3" height="9" fill="#000000" />
<rect x="72" y="54" width="3" height="6" fill="#37946E" />
<rect x="75" y="54" width="3" height="15" fill="#256B4F" />
<rect x="78" y="54" width="3" height="3" fill="#000000" />
<rect x="6" y="57" width="3" height="6" fill="#000000" />
<rect x="9" y="57" width="3" height="3" fill="#37946E" />
<rect x="12" y="57" width="6" height="3" fill="#256B4F" />
<rect x="21" y="57" width="3" height="18" fill="#256B4F" />
<rect x="27" y="57" width="3" height="12" fill="#FFE9B7" />
<rect x="66" y="57" width="3" height="18" fill="#256B4F" />
<rect x="78" y="57" width="3" height="6" fill="#37946E" />
<rect x="81" y="57" width="3" height="6" fill="#000000" />
<rect x="9" y="60" width="6" height="6" fill="#256B4F" />
<rect x="15" y="60" width="3" height="18" fill="#000000" />
<rect x="72" y="60" width="3" height="18" fill="#000000" />
<rect x="3" y="63" width="3" height="3" fill="#FFFFFF" />
<rect x="6" y="63" width="3" height="3" fill="#256B4F" />
<rect x="18" y="63" width="3" height="9" fill="#256B4F" />
<rect x="69" y="63" width="3" height="9" fill="#256B4F" />
<rect x="78" y="63" width="6" height="3" fill="#256B4F" />
<rect x="84" y="63" width="3" height="3" fill="#FFFFFF" />
<rect x="6" y="66" width="3" height="3" fill="#FFFFFF" />
<rect x="9" y="66" width="3" height="3" fill="#000000" />
<rect x="12" y="66" width="3" height="3" fill="#256B4F" />
<rect x="78" y="66" width="3" height="3" fill="#000000" />
<rect x="81" y="66" width="3" height="3" fill="#FFFFFF" />
<rect x="9" y="69" width="3" height="3" fill="#FFFFFF" />
<rect x="12" y="69" width="3" height="3" fill="#000000" />
<rect x="27" y="69" width="3" height="15" fill="#256B4F" />
<rect x="60" y="69" width="3" height="12" fill="#256B4F" />
<rect x="75" y="69" width="3" height="3" fill="#000000" />
<rect x="78" y="69" width="3" height="3" fill="#FFFFFF" />
<rect x="18" y="72" width="3" height="3" fill="#37946E" />
<rect x="30" y="72" width="27" height="3" fill="#FFE9B7" />
<rect x="57" y="72" width="3" height="12" fill="#256B4F" />
<rect x="69" y="72" width="3" height="3" fill="#37946E" />
<rect x="18" y="75" width="3" height="3" fill="#FFFFFF" />
<rect x="21" y="75" width="3" height="3" fill="#37946E" />
<rect x="30" y="75" width="6" height="3" fill="#256B4F" />
<rect x="36" y="75" width="9" height="3" fill="#FFE9B7" />
<rect x="45" y="75" width="12" height="12" fill="#256B4F" />
<rect x="63" y="75" width="6" height="3" fill="#37946E" />
<rect x="69" y="75" width="3" height="3" fill="#FFFFFF" />
<rect x="12" y="78" width="3" height="3" fill="#000000" />
<rect x="15" y="78" width="3" height="3" fill="#FFFFFF" />
<rect x="18" y="78" width="3" height="6" fill="#FFE9B7" />
<rect x="21" y="78" width="3" height="3" fill="#000000" />
<rect x="24" y="78" width="3" height="3" fill="#37946E" />
<rect x="30" y="78" width="3" height="3" fill="#37946E" />
<rect x="33" y="78" width="12" height="9" fill="#256B4F" />
<rect x="63" y="78" width="3" height="3" fill="#256B4F" />
<rect x="66" y="78" width="3" height="3" fill="#000000" />
<rect x="69" y="78" width="3" height="6" fill="#FFE9B7" />
<rect x="72" y="78" width="3" height="3" fill="#FFFFFF" />
<rect x="75" y="78" width="3" height="3" fill="#000000" />
<rect x="9" y="81" width="3" height="3" fill="#000000" />
<rect x="12" y="81" width="3" height="3" fill="#FFFFFF" />
<rect x="15" y="81" width="3" height="6" fill="#FFE9B7" />
<rect x="21" y="81" width="3" height="9" fill="#FFE9B7" />
<rect x="24" y="81" width="3" height="9" fill="#000000" />
<rect x="30" y="81" width="3" height="3" fill="#256B4F" />
<rect x="60" y="81" width="3" height="3" fill="#37946E" />
<rect x="63" y="81" width="3" height="9" fill="#000000" />
<rect x="66" y="81" width="3" height="9" fill="#FFE9B7" />
<rect x="72" y="81" width="3" height="6" fill="#FFE9B7" />
<rect x="75" y="81" width="3" height="3" fill="#FFFFFF" />
<rect x="78" y="81" width="3" height="3" fill="#000000" />
<rect x="12" y="84" width="3" height="3" fill="#000000" />
<rect x="18" y="84" width="3" height="3" fill="#8F563B" />
<rect x="27" y="84" width="6" height="3" fill="#000000" />
<rect x="57" y="84" width="6" height="3" fill="#000000" />
<rect x="69" y="84" width="3" height="3" fill="#8F563B" />
<rect x="75" y="84" width="3" height="3" fill="#000000" />
<rect x="15" y="87" width="3" height="3" fill="#000000" />
<rect x="18" y="87" width="3" height="3" fill="#FFE9B7" />
<rect x="33" y="87" width="24" height="3" fill="#000000" />
<rect x="69" y="87" width="3" height="3" fill="#FFE9B7" />
<rect x="72" y="87" width="3" height="3" fill="#000000" />
<rect x="18" y="90" width="6" height="3" fill="#000000" />
<rect x="66" y="90" width="6" height="3" fill="#000000" />
</svg>